<?xml version="1.0" encoding="iso-8859-1"?>
<!-- Uploaded to: SVG Repo, www.svgrepo.com, Generator: SVG Repo Mixer Tools -->
<svg height="800px" width="800px" version="1.1" id="Layer_1" xmlns="http://www.w3.org/2000/svg" xmlns:xlink="http://www.w3.org/1999/xlink" 
	 viewBox="0 0 512 512" xml:space="preserve">
<g transform="translate(0 1)">
	<path style="fill:#FFE100;" d="M442.027,442.733H69.973c-19.627,0-35.84-16.213-35.84-35.84V103.107
		c0-19.627,16.213-35.84,35.84-35.84h372.053c19.627,0,35.84,16.213,35.84,35.84v303.787
		C477.867,426.52,461.653,442.733,442.027,442.733"/>
	<path style="fill:#FFFFFF;" d="M34.133,406.893V103.107c0-19.627,16.213-35.84,35.84-35.84h-25.6
		c-19.627,0-35.84,16.213-35.84,35.84v303.787c0,19.627,16.213,35.84,35.84,35.84h25.6C50.347,442.733,34.133,426.52,34.133,406.893
		"/>
	<path style="fill:#FFA800;" d="M467.627,67.267h-25.6c19.627,0,35.84,16.213,35.84,35.84v303.787
		c0,19.627-16.213,35.84-35.84,35.84h25.6c19.627,0,35.84-16.213,35.84-35.84V103.107C503.467,83.48,487.253,67.267,467.627,67.267"
		/>
	<path style="fill:#FDCC00;" d="M287.573,268.653l204.8-191.147c-5.973-5.973-15.36-10.24-24.747-10.24H44.373
		c-9.387,0-18.773,4.267-24.747,10.24L225.28,268.653C242.347,284.867,269.653,284.867,287.573,268.653"/>
	<path d="M467.627,451.267H44.373C19.627,451.267,0,431.64,0,406.893v-194.56c0-5.12,3.413-8.533,8.533-8.533
		s8.533,3.413,8.533,8.533v194.56c0,15.36,11.947,27.307,27.307,27.307h423.253c15.36,0,27.307-11.947,27.307-27.307V103.107
		c0-15.36-11.947-27.307-27.307-27.307H44.373c-15.36,0-27.307,11.947-27.307,27.307v40.96c0,5.12-3.413,8.533-8.533,8.533
		S0,149.187,0,144.067v-40.96C0,78.36,19.627,58.733,44.373,58.733h423.253c24.747,0,44.373,19.627,44.373,44.373v303.787
		C512,431.64,492.373,451.267,467.627,451.267z"/>
	<path d="M17.067,178.2c0-5.12-3.413-8.533-8.533-8.533S0,173.08,0,178.2c0,5.12,3.413,8.533,8.533,8.533
		S17.067,183.32,17.067,178.2"/>
	<path d="M256,289.133c-13.653,0-26.453-5.12-37.547-14.507L13.653,83.48c-1.707-1.707-2.56-3.413-2.56-5.973
		c0-2.56,0.853-4.267,2.56-5.973c8.533-8.533,18.773-12.8,30.72-12.8h423.253c11.947,0,22.187,4.267,30.72,12.8
		c1.707,1.707,2.56,4.267,2.56,5.973c0,2.56-0.853,4.267-2.56,5.973l-204.8,191.147C282.453,284.867,269.653,289.133,256,289.133z
		 M33.28,78.36L230.4,262.68c14.507,13.653,36.693,13.653,51.2,0l0,0L478.72,78.36c-3.413-1.707-6.827-2.56-11.093-2.56H44.373
		C40.107,75.8,36.693,76.653,33.28,78.36z"/>
	<g>
		<path style="fill:#FDCC00;" d="M256.853,261.827l-6.827,5.973c-17.92,16.213-2.56,16.213-19.627,0l-6.827-5.973L25.6,433.347
			c6.827,5.973,15.36,9.387,24.747,9.387h380.587c9.387,0,17.92-3.413,24.747-9.387L256.853,261.827z"/>
		<path style="fill:#FDCC00;" d="M243.2,279.747c-1.707,0-2.56-0.853-4.267-1.707C242.347,283.16,240.64,283.16,243.2,279.747"/>
		<path style="fill:#FDCC00;" d="M295.253,263.533l-6.827,5.973c-4.267,3.413-8.533,5.973-12.8,8.533L456.533,434.2
			c-6.827,5.973-15.36,9.387-24.747,9.387h36.693c9.387,0,17.92-3.413,24.747-9.387L295.253,263.533z"/>
	</g>
	<path d="M467.627,451.267H44.373c-11.093,0-22.187-4.267-30.72-11.947c-1.707-1.707-2.56-4.267-2.56-6.827s0.853-5.12,2.56-5.973
		l197.973-170.667c3.413-2.56,8.533-2.56,11.093,0l6.827,5.973c14.507,13.653,36.693,13.653,51.2,0l6.827-5.973
		c3.413-2.56,7.68-3.413,11.093,0L496.64,426.52c1.707,1.707,2.56,4.267,2.56,5.973c0,2.56-0.853,5.12-2.56,6.827
		C489.813,447,478.72,451.267,467.627,451.267z M34.133,432.493c3.413,0.853,6.827,1.707,10.24,1.707h423.253
		c3.413,0,6.827-0.853,10.24-1.707L294.4,273.773l-0.853,0.853c-20.48,19.627-53.76,19.627-74.24,0l-0.853-0.853L34.133,432.493z"/>
</g>
</svg>