<svg height="800" width="800" xmlns="http://www.w3.org/2000/svg" viewBox="0 0 512 512" xml:space="preserve"><path style="fill:#ffe100" d="M442.027 442.733H69.973c-19.627 0-35.84-16.213-35.84-35.84V103.107c0-19.627 16.213-35.84 35.84-35.84h372.053c19.627 0 35.84 16.213 35.84 35.84v303.787c.001 19.626-16.213 35.839-35.839 35.839" transform="translate(0 1)"/><path style="fill:#fff" d="M34.133 406.893V103.107c0-19.627 16.213-35.84 35.84-35.84h-25.6c-19.627 0-35.84 16.213-35.84 35.84v303.787c0 19.627 16.213 35.84 35.84 35.84h25.6c-19.626-.001-35.84-16.214-35.84-35.841" transform="translate(0 1)"/><path style="fill:#ffa800" d="M467.627 67.267h-25.6c19.627 0 35.84 16.213 35.84 35.84v303.787c0 19.627-16.213 35.84-35.84 35.84h25.6c19.627 0 35.84-16.213 35.84-35.84V103.107c0-19.627-16.214-35.84-35.84-35.84" transform="translate(0 1)"/><path style="fill:#fdcc00" d="m287.573 268.653 204.8-191.147c-5.973-5.973-15.36-10.24-24.747-10.24H44.373c-9.387 0-18.773 4.267-24.747 10.24L225.28 268.653c17.067 16.214 44.373 16.214 62.293 0" transform="translate(0 1)"/><path d="M467.627 452.267H44.373C19.627 452.267 0 432.64 0 407.893v-194.56c0-5.12 3.413-8.533 8.533-8.533s8.533 3.413 8.533 8.533v194.56c0 15.36 11.947 27.307 27.307 27.307h423.253c15.36 0 27.307-11.947 27.307-27.307V104.107c0-15.36-11.947-27.307-27.307-27.307H44.373c-15.36 0-27.307 11.947-27.307 27.307v40.96c0 5.12-3.413 8.533-8.533 8.533S0 150.187 0 145.067v-40.96C0 79.36 19.627 59.733 44.373 59.733h423.253c24.747 0 44.373 19.627 44.373 44.373v303.787c.001 24.747-19.626 44.374-44.372 44.374z"/><path d="M17.067 179.2c0-5.12-3.413-8.533-8.533-8.533S0 174.08 0 179.2c0 5.12 3.413 8.533 8.533 8.533s8.534-3.413 8.534-8.533M256 290.133c-13.653 0-26.453-5.12-37.547-14.507L13.653 84.48c-1.707-1.707-2.56-3.413-2.56-5.973s.853-4.267 2.56-5.973c8.533-8.533 18.773-12.8 30.72-12.8h423.253c11.947 0 22.187 4.267 30.72 12.8 1.707 1.707 2.56 4.267 2.56 5.973 0 2.56-.853 4.267-2.56 5.973l-204.8 191.147c-11.093 10.24-23.893 14.506-37.546 14.506zM33.28 79.36 230.4 263.68c14.507 13.653 36.693 13.653 51.2 0L478.72 79.36c-3.413-1.707-6.827-2.56-11.093-2.56H44.373c-4.266 0-7.68.853-11.093 2.56z"/><path style="fill:#fdcc00" d="m256.853 261.827-6.827 5.973c-17.92 16.213-2.56 16.213-19.627 0l-6.827-5.973L25.6 433.347c6.827 5.973 15.36 9.387 24.747 9.387h380.587c9.387 0 17.92-3.413 24.747-9.387l-198.828-171.52z" transform="translate(0 1)"/><path style="fill:#fdcc00" d="M243.2 279.747c-1.707 0-2.56-.853-4.267-1.707 3.414 5.12 1.707 5.12 4.267 1.707M295.253 263.533l-6.827 5.973c-4.267 3.413-8.533 5.973-12.8 8.533L456.533 434.2c-6.827 5.973-15.36 9.387-24.747 9.387h36.693c9.387 0 17.92-3.413 24.747-9.387L295.253 263.533z" transform="translate(0 1)"/><path d="M467.627 452.267H44.373c-11.093 0-22.187-4.267-30.72-11.947-1.707-1.707-2.56-4.267-2.56-6.827s.853-5.12 2.56-5.973l197.973-170.667c3.413-2.56 8.533-2.56 11.093 0l6.827 5.973c14.507 13.653 36.693 13.653 51.2 0l6.827-5.973c3.413-2.56 7.68-3.413 11.093 0L496.64 427.52c1.707 1.707 2.56 4.267 2.56 5.973 0 2.56-.853 5.12-2.56 6.827-6.827 7.68-17.92 11.947-29.013 11.947zM34.133 433.493c3.413.853 6.827 1.707 10.24 1.707h423.253c3.413 0 6.827-.853 10.24-1.707L294.4 274.773l-.853.853c-20.48 19.627-53.76 19.627-74.24 0l-.853-.853-184.321 158.72z"/></svg>